<?xml version="1.0" encoding="UTF-8"?><svg id="Original_Bésian_Flag" xmlns="http://www.w3.org/2000/svg" viewBox="0 0 2048 1365.33"><defs><style>.cls-1{fill:#355834;}.cls-1,.cls-2{stroke-width:0px;}.cls-2{fill:#edae49;}</style></defs><rect class="cls-1" width="2048" height="1365.33"/><g id="uroboros"><path class="cls-2" d="m373.28,487.56c70.96-14.44,121.65-75.57,121.65-146.23,0-84.79-68.81-153.6-153.6-153.6s-153.6,68.81-153.6,153.6c0,66.66,44.85,125.34,109.98,144.38,1.54.31,2.15.61,3.69.61,5.53,0,10.14,3.99,16.28,3.99,3.07,0,10.75-.92,13.82-.92,9.22,0,22.73,5.53,31.95,5.53,3.99,0,8.6-3.07,9.83-7.37Zm-80.49-34.41c-46.08-19.05-75.88-62.98-75.88-111.82,0-68.81,55.6-124.42,124.42-124.42s124.42,55.6,124.42,124.42c0,52.84-33.79,99.53-83.87,116.74.31-5.53-6.76-8.91-14.75-8.91-4.3,0-8.29,1.54-10.44,1.54-3.07,0-8.6-3.38-14.13-3.38-6.14,0-16.59,2.46-25.8,3.99-9.22,1.54-19.35,3.69-23.96,1.84h0Z"/><path class="cls-1" d="m373.28,487.56c70.96-14.44,121.65-75.57,121.65-146.23,0-84.79-68.81-153.6-153.6-153.6s-153.6,68.81-153.6,153.6c0,66.66,44.85,125.34,109.98,144.38,1.54.31,2.15.61,3.69.61,5.53,0,10.14,3.99,16.28,3.99,3.07,0,10.75-.92,13.82-.92,9.22,0,22.73,5.53,31.95,5.53,3.99,0,8.6-3.07,9.83-7.37Zm-75.88-5.84c-62.98-18.74-105.98-75.88-105.98-140.39,0-82.94,66.97-149.91,149.91-149.91s149.91,66.97,149.91,149.91c0,70.96-52.22,131.48-123.8,143.77-11.06,1.84-26.42-4.92-26.42-7.07,0-1.54,6.45-3.69,7.68-4.3,73.42-3.69,130.87-61.75,130.87-132.4,0-76.49-61.75-138.24-138.24-138.24s-138.24,61.75-138.24,138.24c0,47.31,25.5,91.55,66.97,115.81,3.99,1.84,11.37,2.15,14.44,2.15s14.13-.61,17.2-2.15,15.05-3.07,21.2-4.61c6.14-1.54,14.44-2.76,19.05-2.76,7.68,0,14.75,4.61,17.2,4.3v-.61c0-.92,2.76-1.54,8.29-1.54,6.14,0,12.6,2.15,11.98,7.07l-7.37,2.76c-6.14,1.84-8.91,1.54-11.98,2.76-7.68,2.46-9.52,5.84-16.59,8.91-7.07,3.07-17.51,3.07-17.51,4.61,0,.92,4.61,1.23,7.68,1.54,7.68.92,15.36,7.07,24.58,7.99,6.14.61,7.68.31,11.98,0-.31,1.54-2.76,4.61-6.76,4.61-9.83,0-22.12-5.84-30.41-5.84-4.61,0-7.99,1.84-12.6,1.84-6.76,0-14.44-5.53-20.58-9.22-1.54-.92-3.07-1.84-4.61-1.84s-1.54.31-1.54.61c0,1.23,6.14,3.07,6.14,3.99,0,.61-.92.31-2.46,0h0Zm66.05-15.05c61.44-10.75,105.98-63.59,105.98-125.34,0-70.66-57.45-128.1-128.1-128.1s-128.1,57.45-128.1,128.1c0,50.07,30.72,95.54,78.03,115.2-7.37.92-15.97.31-19.97-1.54-40.86-23.96-65.74-66.97-65.74-113.66,0-74.96,60.83-135.78,135.78-135.78s135.78,60.83,135.78,135.78c0,67.58-53.76,123.8-123.8,129.64,1.54-.61,3.99-3.69,10.14-4.3h0Zm-70.66-13.52c-46.08-19.05-75.88-62.98-75.88-111.82,0-68.81,55.6-124.42,124.42-124.42s124.42,55.6,124.42,124.42c0,52.84-33.79,99.53-83.87,116.74.31-5.53-6.76-8.91-14.75-8.91-4.3,0-8.29,1.54-10.44,1.54-3.07,0-8.6-3.38-14.13-3.38-6.14,0-16.59,2.46-25.8,3.99s-19.35,3.69-23.96,1.84h0Zm31.95,4.92c0,.61,1.23.92,4.3.92,4.61.31,5.53,3.99,9.22,3.99,6.45,0,9.22-2.76,11.37-2.76l3.07.61.31-.61c-3.07-2.15-7.68-5.22-10.75-5.22-1.54,0-3.07.31-6.14,1.23-4.61,1.23-11.37,1.23-11.37,1.84h0Zm41.16-2.15c5.53.92,5.22,2.76,8.29,2.76.92,0,1.54-.61,1.54-1.54s-3.69-1.84-9.52-2.15l-.31.92Z"/><path class="cls-1" d="m332.73,458.38l4.61-.92c0,1.54.92,3.07,1.54,3.99-2.76,0-4.61-2.46-6.14-3.07Zm15.36.61l-5.22,2.15c.31-1.54.31-3.07,0-4.61,2.46.61,3.69,1.54,5.22,2.46Z"/></g></svg>