<svg xmlns="http://www.w3.org/2000/svg" viewBox="0 0 18 21.25">
  <defs>
    <clipPath id="left-half">
      <rect x="0" y="0" width="9" height="21.25" />
    </clipPath>
    <clipPath id="right-half">
      <rect x="9" y="0" width="9" height="21.25" />
    </clipPath>
  </defs>
  <path
    clip-path="url(#left-half)"
    d="M17.1389279,5.989 L11.5739279,5.989 L9.81892788,0.59 C9.68992788,0.196 9.35092788,0 9.00992788,0 C9.00692788,0 9.00292788,0.002 8.99992788,0.002 L8.99992788,0 C8.95292788,0 8.90692788,0.014 8.85992788,0.022 C8.82392788,0.028 8.78592788,0.028 8.74992788,0.039 C8.70892788,0.052 8.67292788,0.076 8.63292788,0.095 C8.59392788,0.114 8.55192788,0.128 8.51492788,0.153 C8.48892788,0.171 8.46892788,0.199 8.44392788,0.221 C8.33392788,0.318 8.23992788,0.439 8.18692788,0.602 L6.43192788,5.989 L0.860927876,5.989 C0.650927876,5.989 0.470927876,6.056 0.331927876,6.164 C-0.0860721237,6.489 -0.148072124,7.183 0.370927876,7.546 L4.84292788,10.647 L3.11692788,15.824 C3.08592788,15.916 3.07592788,16.004 3.07392788,16.091 C3.07292788,16.115 3.07592788,16.138 3.07792788,16.161 C3.08192788,16.224 3.09192788,16.284 3.10892788,16.342 C3.11492788,16.365 3.12092788,16.387 3.12892788,16.409 C3.15492788,16.475 3.18692788,16.537 3.22692788,16.594 C3.23192788,16.601 3.23592788,16.61 3.24092788,16.617 C3.28892788,16.681 3.34592788,16.737 3.40892788,16.785 C3.42392788,16.797 3.43992788,16.806 3.45592788,16.816 C3.50592788,16.85 3.55792788,16.879 3.61292788,16.902 C3.63592788,16.911 3.65792788,16.919 3.68092788,16.927 C3.73792788,16.945 3.79792788,16.957 3.85792788,16.962 C3.87792788,16.964 3.89592788,16.969 3.91592788,16.969 C3.92192788,16.97 3.92792788,16.972 3.93392788,16.972 C3.98092788,16.972 4.02792788,16.958 4.07592788,16.949 C4.10992788,16.943 4.14392788,16.944 4.17692788,16.933 C4.24192788,16.913 4.30492788,16.877 4.36692788,16.839 C4.38792788,16.826 4.40992788,16.822 4.43092788,16.807 L8.47392788,13.896 L9.00192788,13.516 L13.5729279,16.852 C13.7329279,16.968 13.9059279,17.019 14.0739279,17.019 C14.6129279,17.019 15.0919279,16.486 14.8909279,15.877 L13.1629279,10.647 L17.6269279,7.546 C18.3209279,7.063 17.9819279,5.989 17.1389279,5.989 Z"
    fill="#3d9268"
  />

  <path
    clip-path="url(#right-half)"
    d="M17.1389279,5.989 L11.5739279,5.989 L9.81892788,0.59 C9.68992788,0.196 9.35092788,0 9.00992788,0 C9.00692788,0 9.00292788,0.002 8.99992788,0.002 L8.99992788,0 C8.95292788,0 8.90692788,0.014 8.85992788,0.022 C8.82392788,0.028 8.78592788,0.028 8.74992788,0.039 C8.70892788,0.052 8.67292788,0.076 8.63292788,0.095 C8.59392788,0.114 8.55192788,0.128 8.51492788,0.153 C8.48892788,0.171 8.46892788,0.199 8.44392788,0.221 C8.33392788,0.318 8.23992788,0.439 8.18692788,0.602 L6.43192788,5.989 L0.860927876,5.989 C0.650927876,5.989 0.470927876,6.056 0.331927876,6.164 C-0.0860721237,6.489 -0.148072124,7.183 0.370927876,7.546 L4.84292788,10.647 L3.11692788,15.824 C3.08592788,15.916 3.07592788,16.004 3.07392788,16.091 C3.07292788,16.115 3.07592788,16.138 3.07792788,16.161 C3.08192788,16.224 3.09192788,16.284 3.10892788,16.342 C3.11492788,16.365 3.12092788,16.387 3.12892788,16.409 C3.15492788,16.475 3.18692788,16.537 3.22692788,16.594 C3.23192788,16.601 3.23592788,16.61 3.24092788,16.617 C3.28892788,16.681 3.34592788,16.737 3.40892788,16.785 C3.42392788,16.797 3.43992788,16.806 3.45592788,16.816 C3.50592788,16.85 3.55792788,16.879 3.61292788,16.902 C3.63592788,16.911 3.65792788,16.919 3.68092788,16.927 C3.73792788,16.945 3.79792788,16.957 3.85792788,16.962 C3.87792788,16.964 3.89592788,16.969 3.91592788,16.969 C3.92192788,16.97 3.92792788,16.972 3.93392788,16.972 C3.98092788,16.972 4.02792788,16.958 4.07592788,16.949 C4.10992788,16.943 4.14392788,16.944 4.17692788,16.933 C4.24192788,16.913 4.30492788,16.877 4.36692788,16.839 C4.38792788,16.826 4.40992788,16.822 4.43092788,16.807 L8.47392788,13.896 L9.00192788,13.516 L13.5729279,16.852 C13.7329279,16.968 13.9059279,17.019 14.0739279,17.019 C14.6129279,17.019 15.0919279,16.486 14.8909279,15.877 L13.1629279,10.647 L17.6269279,7.546 C18.3209279,7.063 17.9819279,5.989 17.1389279,5.989 Z"
    fill="#a5a5a5"
  />
</svg>