<?xml version="1.0" encoding="UTF-8" standalone="no"?>
<!-- Created with Inkscape (http://www.inkscape.org/) -->

<svg
   width="88"
   height="31"
   viewBox="0 0 88 31"
   version="1.1"
   id="svg1"
   inkscape:version="1.4.3 (0d15f75042, 2025-12-25)"
   sodipodi:docname="stamp-88x31.svg"
   xmlns:inkscape="http://www.inkscape.org/namespaces/inkscape"
   xmlns:sodipodi="http://sodipodi.sourceforge.net/DTD/sodipodi-0.dtd"
   xmlns:xlink="http://www.w3.org/1999/xlink"
   xmlns="http://www.w3.org/2000/svg"
   xmlns:svg="http://www.w3.org/2000/svg">
  <sodipodi:namedview
     id="namedview1"
     pagecolor="#ffffff"
     bordercolor="#000000"
     borderopacity="0.25"
     inkscape:showpageshadow="2"
     inkscape:pageopacity="0.0"
     inkscape:pagecheckerboard="0"
     inkscape:deskcolor="#d1d1d1"
     inkscape:document-units="px"
     showgrid="true"
     inkscape:zoom="8"
     inkscape:cx="48.75"
     inkscape:cy="31.1875"
     inkscape:window-width="1920"
     inkscape:window-height="1080"
     inkscape:window-x="0"
     inkscape:window-y="0"
     inkscape:window-maximized="1"
     inkscape:current-layer="layer1">
    <inkscape:grid
       id="grid1"
       units="px"
       originx="0"
       originy="0"
       spacingx="1"
       spacingy="1"
       empcolor="#0099e5"
       empopacity="0.30196078"
       color="#0099e5"
       opacity="0.14901961"
       empspacing="4"
       enabled="true"
       visible="true" />
    <inkscape:grid
       id="grid2"
       units="px"
       originx="0"
       originy="0"
       spacingx="0.5"
       spacingy="0.5"
       empcolor="#0099e5"
       empopacity="0"
       color="#0099e5"
       opacity="0.14901961"
       empspacing="5"
       enabled="true"
       visible="true"
       dotted="true" />
  </sodipodi:namedview>
  <defs
     id="defs1">
    <inkscape:path-effect
       effect="fillet_chamfer"
       id="path-effect2"
       is_visible="true"
       lpeversion="1"
       nodesatellites_param="F,0,0,1,0,0,0,1 @ F,0,0,1,0,0,0,1 @ F,0,0,1,0,0,0,1 @ F,0,0,1,0,0,0,1 @ F,0,0,1,0,0,0,1 @ F,0,0,1,0,0,0,1 @ F,0,0,1,0,0,0,1 @ F,0,0,1,0,0,0,1"
       radius="0"
       unit="px"
       method="auto"
       mode="F"
       chamfer_steps="1"
       flexible="false"
       use_knot_distance="true"
       apply_no_radius="true"
       apply_with_radius="true"
       only_selected="false"
       hide_knots="false" />
    <linearGradient
       inkscape:collect="always"
       xlink:href="#linearGradient12"
       id="linearGradient13"
       x1="11.999998"
       y1="2.0000017"
       x2="11.999998"
       y2="22"
       gradientUnits="userSpaceOnUse" />
    <linearGradient
       id="linearGradient12"
       inkscape:collect="always">
      <stop
         style="stop-color:#ffeeaa;stop-opacity:1;"
         offset="0"
         id="stop12" />
      <stop
         style="stop-color:#ffffff;stop-opacity:1;"
         offset="1"
         id="stop13" />
    </linearGradient>
    <linearGradient
       inkscape:collect="always"
       xlink:href="#swatch3"
       id="linearGradient1"
       gradientUnits="userSpaceOnUse"
       gradientTransform="translate(0.20052178,2.7159993)"
       x1="2.5"
       y1="13.999999"
       x2="12.5"
       y2="24"
       spreadMethod="repeat" />
    <linearGradient
       id="swatch3">
      <stop
         style="stop-color:#000000;stop-opacity:1;"
         offset="0.25"
         id="stop5" />
      <stop
         style="stop-color:#0d56a7;stop-opacity:1;"
         offset="0.25"
         id="stop6" />
      <stop
         style="stop-color:#0d56a7;stop-opacity:1;"
         offset="0.5"
         id="stop4" />
      <stop
         style="stop-color:#000000;stop-opacity:1;"
         offset="0.5"
         id="stop7" />
      <stop
         style="stop-color:#000000;stop-opacity:1;"
         offset="0.75"
         id="stop8" />
      <stop
         style="stop-color:#eb097d;stop-opacity:1;"
         offset="0.75"
         id="stop9" />
    </linearGradient>
    <filter
       style="color-interpolation-filters:sRGB"
       inkscape:label="Drop Shadow"
       id="filter16-9"
       x="0"
       y="0"
       width="1"
       height="1">
      <feComposite
         result="comp2"
         operator="over"
         in="SourceGraphic"
         in2="comp1"
         id="feComposite16-2" />
    </filter>
    <filter
       style="color-interpolation-filters:sRGB"
       inkscape:label="Blur"
       id="filter1"
       x="-0.028571429"
       y="-0.08"
       width="1.0571429"
       height="1.16">
      <feGaussianBlur
         stdDeviation="1 1"
         result="blur"
         id="feGaussianBlur1" />
    </filter>
    <filter
       style="color-interpolation-filters:sRGB"
       inkscape:label="Drop Shadow"
       id="filter16-9-2"
       x="0"
       y="0"
       width="1"
       height="1">
      <feComposite
         result="comp2"
         operator="over"
         in="SourceGraphic"
         in2="comp1"
         id="feComposite16-2-0" />
    </filter>
  </defs>
  <g
     inkscape:label="Layer 1"
     inkscape:groupmode="layer"
     id="layer1">
    <rect
       style="fill:#000000;fill-opacity:0.502635;stroke:none;stroke-width:0.971907;stroke-linecap:round;stroke-dasharray:2.91572, 2.91572;stroke-dashoffset:0;stroke-opacity:0.50177;paint-order:fill markers stroke;filter:url(#filter1)"
       id="rect1-2"
       width="84"
       height="30"
       x="2"
       y="0" />
    <rect
       style="fill:#f8ffd4;fill-opacity:1;stroke:#3a4306;stroke-width:0.974421;stroke-linecap:round;stroke-linejoin:round;stroke-dasharray:2.92326, 2.92326;stroke-opacity:1;paint-order:fill markers stroke;stroke-dashoffset:0"
       id="rect3"
       width="87"
       height="29"
       x="0.5"
       y="0.5" />
    <text
       xml:space="preserve"
       style="font-style:normal;font-variant:normal;font-weight:bold;font-stretch:normal;font-size:10px;line-height:0.9;font-family:Arial;-inkscape-font-specification:'Arial, Bold';font-variant-ligatures:normal;font-variant-caps:normal;font-variant-numeric:normal;font-variant-east-asian:normal;letter-spacing:0px;writing-mode:lr-tb;direction:ltr;fill:url(#linearGradient1);fill-opacity:1;stroke:none;stroke-width:2;stroke-linecap:round;stroke-linejoin:round;stroke-dasharray:none;stroke-opacity:1;paint-order:stroke fill markers;filter:url(#filter16-9)"
       x="28.848633"
       y="14.092773"
       id="text1"><tspan
         sodipodi:role="line"
         id="tspan1"
         x="28.848633"
         y="14.092773"
         style="fill:url(#linearGradient1)">the </tspan><tspan
         sodipodi:role="line"
         x="28.848633"
         y="23.092773"
         id="tspan2"
         style="fill:url(#linearGradient1)">stampbook</tspan></text>
    <g
       id="g2"
       inkscape:label="Stamp"
       transform="translate(3,3)">
      <g
         inkscape:label="Layer 1"
         inkscape:groupmode="layer"
         id="layer1-5">
        <path
           style="baseline-shift:baseline;display:inline;overflow:visible;opacity:1;vector-effect:none;fill:url(#linearGradient13);fill-opacity:1;stroke:none;stroke-linecap:round;paint-order:markers fill stroke;enable-background:accumulate;stop-color:#000000;stop-opacity:1"
           d="M 3.5,2 C 2.6776492,2 2,2.6776492 2,3.5 v 2 h 0.5019531 c 0.2829161,3.949e-4 0.5000003,0.2186111 0.5,0.5 3e-7,0.2813884 -0.2170843,0.4996052 -0.5,0.5 H 2 v 3 h 0.5019531 c 0.2820653,0 0.5,0.2179344 0.5,0.5 0,0.282066 -0.2179347,0.5 -0.5,0.5 H 2 v 3 h 0.5019531 c 0.2820653,0 0.5,0.217934 0.5,0.5 0,0.282066 -0.2179347,0.5 -0.5,0.5 H 2 v 3 h 0.5019531 c 0.2820653,0 0.5,0.217934 0.5,0.5 0,0.282066 -0.2179347,0.5 -0.5,0.5 H 2 v 2 C 2,21.322351 2.6776492,22 3.5,22 h 2 V 21.5 C 5.5,21.217934 5.7179347,21 6,21 c 0.2820653,0 0.5,0.217934 0.5,0.5 V 22 h 3 V 21.5 C 9.5,21.217934 9.7179347,21 10,21 c 0.282066,0 0.5,0.217934 0.5,0.5 V 22 h 3 v -0.5 c 0,-0.282066 0.217934,-0.5 0.5,-0.5 0.282066,0 0.5,0.217934 0.5,0.5 V 22 h 3 v -0.5 c 0,-0.282066 0.217934,-0.5 0.5,-0.5 0.282066,0 0.5,0.217934 0.5,0.5 V 22 h 2 c 0.822351,0 1.5,-0.677649 1.5,-1.5 v -2 H 21.5 C 21.217934,18.5 21,18.282066 21,18 c 0,-0.282066 0.217934,-0.5 0.5,-0.5 H 22 v -3 H 21.5 C 21.217934,14.5 21,14.282066 21,14 c 0,-0.282066 0.217934,-0.5 0.5,-0.5 H 22 v -3 H 21.5 C 21.217934,10.5 21,10.282066 21,10 21,9.7179342 21.217934,9.5 21.5,9.5 H 22 v -3 H 21.5 C 21.216665,6.5001562 20.998047,6.2818058 20.998047,6 20.998047,5.7181948 21.216665,5.4998437 21.5,5.5 H 22 v -2 C 22,2.6776492 21.322351,2 20.5,2 h -2 V 2.5 C 18.5,2.7820653 18.282066,3 18,3 17.717934,3 17.5,2.7820653 17.5,2.5 V 2 h -3 V 2.5 C 14.5,2.7820653 14.282066,3 14,3 13.717934,3 13.5,2.7820653 13.5,2.5 V 2 h -3 V 2.5 C 10.5,2.7820653 10.282066,3 10,3 9.7179349,3 9.5,2.7820651 9.5,2.5 V 2 h -3 V 2.5 C 6.5,2.7820651 6.2820651,3 6,3 5.7179349,3 5.5,2.7820651 5.5,2.5 V 2 Z"
           id="rect2-0"
           sodipodi:nodetypes="ssccscccsssccsssccssscsscsssccsssccsssccssscsscsssccsssccssscccsccsscsssccsssccsssccssscs"
           inkscape:label="Background" />
        <path
           id="rect2-9"
           style="fill:none;fill-opacity:1;stroke:#ffffff;stroke-width:0.999998;stroke-linecap:round;stroke-linejoin:round;stroke-dasharray:none;stroke-opacity:1;paint-order:markers fill stroke"
           inkscape:label="Border"
           sodipodi:type="inkscape:offset"
           inkscape:radius="-1"
           inkscape:original="M 3.5 2.5 C 2.946 2.5 2.5 2.946 2.5 3.5 L 2.5 5 L 2.5019531 5 C 3.0544642 5.0007712 3.5019536 5.4482607 3.5019531 6 C 3.5019536 6.5517393 3.0544642 6.9992288 2.5019531 7 L 2.5 7 L 2.5 9 L 2.5019531 9 C 3.0542378 9 3.5019531 9.4477153 3.5019531 10 C 3.5019531 10.552285 3.0542378 11 2.5019531 11 L 2.5 11 L 2.5 13 L 2.5019531 13 C 3.0542378 13 3.5019531 13.447715 3.5019531 14 C 3.5019531 14.552285 3.0542378 15 2.5019531 15 L 2.5 15 L 2.5 17 L 2.5019531 17 C 3.0542378 17 3.5019531 17.447715 3.5019531 18 C 3.5019531 18.552285 3.0542378 19 2.5019531 19 L 2.5 19 L 2.5 20.5 C 2.5 21.054 2.946 21.5 3.5 21.5 L 5 21.5 C 5 20.947715 5.4477153 20.5 6 20.5 C 6.5522847 20.5 7 20.947715 7 21.5 L 9 21.5 C 9 20.947715 9.4477153 20.5 10 20.5 C 10.552285 20.5 11 20.947715 11 21.5 L 13 21.5 C 13 20.947715 13.447715 20.5 14 20.5 C 14.552285 20.5 15 20.947715 15 21.5 L 17 21.5 C 17 20.947715 17.447715 20.5 18 20.5 C 18.552285 20.5 19 20.947715 19 21.5 L 20.5 21.5 C 21.054 21.5 21.5 21.054 21.5 20.5 L 21.5 19 C 20.947715 19 20.5 18.552285 20.5 18 C 20.5 17.447715 20.947715 17 21.5 17 L 21.5 15 C 20.947715 15 20.5 14.552285 20.5 14 C 20.5 13.447715 20.947715 13 21.5 13 L 21.5 11 C 20.947715 11 20.5 10.552285 20.5 10 C 20.5 9.4477153 20.947715 9 21.5 9 L 21.5 7 C 20.946726 7.0003052 20.498047 6.5525006 20.498047 6 C 20.498047 5.4474994 20.946726 4.9996948 21.5 5 L 21.5 3.5 C 21.5 2.946 21.054 2.5 20.5 2.5 L 19 2.5 C 19 3.0522847 18.552285 3.5 18 3.5 C 17.447715 3.5 17 3.0522847 17 2.5 L 15 2.5 C 15 3.0522847 14.552285 3.5 14 3.5 C 13.447715 3.5 13 3.0522847 13 2.5 L 11 2.5 C 11 3.0522847 10.552285 3.5 10 3.5 C 9.4477153 3.5 9 3.0522847 9 2.5 L 7 2.5 C 7 3.0522847 6.5522847 3.5 6 3.5 C 5.4477153 3.5 5 3.0522847 5 2.5 L 3.5 2.5 z "
           d="M 3.5,3.5 V 4.4179687 C 4.0628449,4.7743968 4.5019538,5.2938398 4.5019531,6 4.5019538,6.7061602 4.0628449,7.2256032 3.5,7.5820312 V 8.4179688 C 4.0627308,8.7744757 4.5019531,9.2940359 4.5019531,10 c 0,0.705964 -0.4392223,1.225524 -1.0019531,1.582031 v 0.835938 C 4.0627308,12.774476 4.5019531,13.294036 4.5019531,14 c 0,0.705964 -0.4392223,1.225524 -1.0019531,1.582031 v 0.835938 C 4.0627308,16.774476 4.5019531,17.294036 4.5019531,18 c 0,0.705964 -0.4392223,1.225524 -1.0019531,1.582031 V 20.5 H 4.4179687 C 4.7746463,19.938118 5.2946802,19.5 6,19.5 c 0.7053198,0 1.2253537,0.438118 1.5820312,1 H 8.4179688 C 8.7746463,19.938118 9.2946802,19.5 10,19.5 c 0.70532,0 1.225354,0.438118 1.582031,1 h 0.835938 c 0.356677,-0.561882 0.876711,-1 1.582031,-1 0.70532,0 1.225354,0.438118 1.582031,1 h 0.835938 c 0.356677,-0.561882 0.876711,-1 1.582031,-1 0.70532,0 1.225354,0.438118 1.582031,1 H 20.5 V 19.582031 C 19.938118,19.225354 19.5,18.70532 19.5,18 c 0,-0.70532 0.438118,-1.225354 1,-1.582031 V 15.582031 C 19.938118,15.225354 19.5,14.70532 19.5,14 c 0,-0.70532 0.438118,-1.225354 1,-1.582031 V 11.582031 C 19.938118,11.225354 19.5,10.70532 19.5,10 c 0,-0.7053198 0.438118,-1.2253537 1,-1.5820312 V 7.5820312 C 19.93739,7.2255881 19.498047,6.7060736 19.498047,6 19.498047,5.2939264 19.93739,4.7744119 20.5,4.4179687 V 3.5 H 19.582031 C 19.225354,4.0618818 18.70532,4.5 18,4.5 17.29468,4.5 16.774646,4.0618818 16.417969,3.5 H 15.582031 C 15.225354,4.0618818 14.70532,4.5 14,4.5 13.29468,4.5 12.774646,4.0618818 12.417969,3.5 H 11.582031 C 11.225354,4.0618818 10.70532,4.5 10,4.5 9.29468,4.5 8.7746462,4.0618818 8.4179688,3.5 H 7.5820312 C 7.2253538,4.0618818 6.70532,4.5 6,4.5 5.29468,4.5 4.7746462,4.0618818 4.4179687,3.5 Z" />
        <path
           id="rect2"
           style="fill:none;fill-opacity:1;stroke:#786721;stroke-width:0.999998;stroke-linecap:round;stroke-linejoin:round;stroke-dasharray:none;stroke-opacity:1;paint-order:markers fill stroke"
           d="m 3.5,2.5 c -0.554,0 -1,0.446 -1,1 V 5 h 0.00195 c 0.5525111,7.712e-4 1.0000005,0.4482607 1,1 5e-7,0.5517393 -0.4474889,0.9992288 -1,1 H 2.5 v 2 h 0.00195 c 0.5522847,0 1,0.4477153 1,1 0,0.552285 -0.4477153,1 -1,1 H 2.5 v 2 h 0.00195 c 0.5522847,0 1,0.447715 1,1 0,0.552285 -0.4477153,1 -1,1 H 2.5 v 2 h 0.00195 c 0.5522847,0 1,0.447715 1,1 0,0.552285 -0.4477153,1 -1,1 H 2.5 v 1.5 c 0,0.554 0.446,1 1,1 H 5 c 0,-0.552285 0.4477153,-1 1,-1 0.5522847,0 1,0.447715 1,1 h 2 c 0,-0.552285 0.4477153,-1 1,-1 0.552285,0 1,0.447715 1,1 h 2 c 0,-0.552285 0.447715,-1 1,-1 0.552285,0 1,0.447715 1,1 h 2 c 0,-0.552285 0.447715,-1 1,-1 0.552285,0 1,0.447715 1,1 h 1.5 c 0.554,0 1,-0.446 1,-1 V 19 c -0.552285,0 -1,-0.447715 -1,-1 0,-0.552285 0.447715,-1 1,-1 v -2 c -0.552285,0 -1,-0.447715 -1,-1 0,-0.552285 0.447715,-1 1,-1 v -2 c -0.552285,0 -1,-0.447715 -1,-1 0,-0.5522847 0.447715,-1 1,-1 V 7 c -0.553274,3.052e-4 -1.001953,-0.4474994 -1.001953,-1 0,-0.5525006 0.448679,-1.0003052 1.001953,-1 V 3.5 c 0,-0.554 -0.446,-1 -1,-1 H 19 c 0,0.5522847 -0.447715,1 -1,1 -0.552285,0 -1,-0.4477153 -1,-1 h -2 c 0,0.5522847 -0.447715,1 -1,1 -0.552285,0 -1,-0.4477153 -1,-1 h -2 c 0,0.5522847 -0.447715,1 -1,1 -0.5522847,0 -1,-0.4477153 -1,-1 H 7 c 0,0.5522847 -0.4477153,1 -1,1 -0.5522847,0 -1,-0.4477153 -1,-1 z"
           inkscape:label="Border"
           sodipodi:nodetypes="ssccscccsssccsssccssscsscsccsccsccscsscsccsccsccscsscsccsccsccscs" />
      </g>
      <g
         inkscape:groupmode="layer"
         id="layer2-3"
         inkscape:label="Layer 2">
        <rect
           style="fill:#ffffff;fill-opacity:1;stroke:none;stroke-width:1;stroke-linecap:round;stroke-linejoin:round;stroke-dasharray:none;stroke-opacity:1;paint-order:markers fill stroke"
           id="rect13"
           width="11"
           height="11"
           x="6.5"
           y="6.5"
           rx="1"
           ry="1"
           inkscape:label="Background" />
        <path
           style="fill:#ffd5d5;fill-opacity:1;stroke:none;stroke-width:1;stroke-linecap:round;stroke-linejoin:round;stroke-dasharray:none;stroke-opacity:1;paint-order:markers fill stroke"
           d="M 6.5,7.5793008 C 6.5,6.5 7.5078125,6.5 7.5078125,6.5 H 14.5 l -8,8.038563 z"
           id="path13"
           sodipodi:nodetypes="scccs" />
        <path
           style="fill:#d5e5ff;fill-opacity:1;stroke:none;stroke-width:1;stroke-linecap:round;stroke-linejoin:round;stroke-dasharray:none;stroke-opacity:1;paint-order:markers fill stroke"
           d="m 17.5,16.392971 c 0,1.079301 -1.007812,1.079301 -1.007812,1.079301 H 9.5 l 8,-8.0385633 z"
           id="path13-7"
           sodipodi:nodetypes="scccs" />
        <rect
           style="fill:none;fill-opacity:1;stroke:#c8ab37;stroke-width:1;stroke-linecap:round;stroke-linejoin:round;stroke-dasharray:none;stroke-opacity:1;paint-order:markers fill stroke"
           id="rect13-9"
           width="11"
           height="11"
           x="6.5"
           y="6.5"
           rx="1"
           ry="1"
           inkscape:label="Border" />
      </g>
    </g>
  </g>
  <g
     inkscape:groupmode="layer"
     id="layer2"
     inkscape:label="Layer 2" />
</svg>
