<svg xmlns="http://www.w3.org/2000/svg" viewBox="0 0 129.31 166.72">
  <title>Musicboard.app Logo</title>
  <desc>© 2025 Musicboard AB, All rights reserved. Logo vectorized by Joshua Maynard.</desc>
  <path d="M64.55 52.14 0 135.23l64.66 31.48 64.65-83.81-64.76-30.77Zm.1 63.46-12.92-6.53 12.92-6.53 12.91 6.53z" fill="#8889fe"/>
  <path fill="#cfd0fe" d="M64.55 52.14 0 82.91v26.16h51.73l12.91-6.53zm13.01 56.93-12.91 6.53.01 51.12 64.63-31.49.01-26.16z"/>
  <path fill="#fff" d="m77.56 109.07 51.73 26.16V82.91zM0 135.23l51.73-26.16L0 82.91z"/>
  <path fill="#efb501" d="M64.55 0C41.39 0 22.62 18.77 22.62 41.93s18.77 41.93 41.93 41.93 41.93-18.77 41.93-41.93S87.7 0 64.55 0m0 49.23c-4.04 0-7.31-3.27-7.31-7.31s3.27-7.31 7.31-7.31 7.31 3.27 7.31 7.31-3.27 7.31-7.31 7.31"/>
</svg>