<svg xmlns="http://www.w3.org/2000/svg" viewBox="0 0 127.3 164.2">
  <title>Musicboard.app Logo</title>
  <desc>© 2025 Musicboard AB, All rights reserved. Logo vectorized by Joshua Maynard.</desc>
  <path fill="#fff" d="M64.7,83.9v17.1l12,6,49.5-25-29.2-13.9c-8,9.8-19.6,15.5-32.2,15.8h-.1Z"/>
  <polygon fill="#fff" points="62.7 164.2 62.7 115.3 50.8 109.2 1.3 134.3 62.7 164.2"/>
  <path fill="#fff" d="M62.7,101v-17.1c-12.6-.3-24.3-6-32.3-15.8L1.4,81.9l49.4,25,11.9-6v.1Z"/>
  <polygon fill="#fff" points="76.6 109.2 64.7 115.3 64.7 164.2 126.1 134.3 76.6 109.2"/>
  <polygon fill="#fff" points="78.8 108.1 127.3 132.6 127.3 83.6 78.8 108.1"/>
  <polygon fill="#fff" points="48.6 108.1 0 83.6 0 132.6 48.6 108.1"/>
  <path fill="#fff" d="M63.6,0C41,0,22.7,18.4,22.7,40.9s18.4,40.9,40.9,40.9,40.9-18.4,40.9-40.9S86.2,0,63.6,0ZM63.6,49.3c-4.6,0-8.3-3.7-8.3-8.3s3.7-8.3,8.3-8.3,8.3,3.7,8.3,8.3-3.7,8.3-8.3,8.3Z"/>
</svg>