<svg version="1.0" xmlns="http://www.w3.org/2000/svg" width="180.000000ptpx" height="180.000000ptpx" viewBox="0 0 180.000000 180.000000" preserveAspectRatio="xMidYMid meet" transform="rotate(0) scale(1, 1)">

<g transform="translate(0.000000,180.000000) scale(0.100000,-0.100000)" fill="#ffffff" stroke="none">
<path d="M795 1559 c-76 -9 -184 -45 -253 -86 -39 -22 -45 -23 -60 -10 -49 43&#10;-106 62 -187 62 -96 0 -149 -22 -213 -86 -136 -138 -94 -352 88 -447 l32 -17&#10;3 -95 c9 -284 204 -528 495 -618 108 -34 292 -34 400 0 291 90 486 334 495&#10;618 3 94 4 95 32 110 99 50 173 158 173 251 0 106 -71 215 -170 262 -66 31&#10;-188 31 -250 -2 -25 -13 -53 -30 -62 -38 -15 -13 -21 -12 -60 10 -73 43 -177&#10;77 -267 87 -95 11 -96 11 -196 -1z m260 -134 c64 -17 128 -46 185 -85 59 -40&#10;88 -39 130 5 84 86 206 81 276 -11 22 -28 28 -46 27 -84 -1 -84 -55 -141 -156&#10;-166 -48 -11 -59 -41 -47 -119 16 -99 -4 -205 -59 -310 -94 -183 -292 -298&#10;-511 -298 -108 0 -179 17 -282 69 -194 97 -321 335 -288 540 12 77 1 107 -47&#10;118 -101 25 -155 82 -156 166 -1 38 5 56 27 84 70 92 192 97 276 11 41 -43 71&#10;-45 125 -8 82 56 165 87 285 107 39 7 159 -4 215 -19z"/>
<path d="M835 1022 c-47 -29 -58 -49 -57 -99 0 -37 8 -57 42 -105 l42 -60 -30&#10;-36 c-37 -47 -63 -51 -91 -16 -17 22 -23 24 -36 14 -23 -19 -18 -46 16 -74 50&#10;-43 109 -33 159 27 l25 29 42 -41 c54 -54 97 -56 151 -7 36 34 37 34 18 55&#10;l-19 21 -27 -25 c-36 -34 -53 -32 -90 15 l-32 40 31 39 c77 97 79 173 5 222&#10;-38 24 -109 25 -149 1z"/>
</g>
</svg>