<?xml version="1.0" encoding="UTF-8" standalone="no"?>
<svg
   xmlns:dc="http://purl.org/dc/elements/1.1/"
   xmlns:cc="http://creativecommons.org/ns#"
   xmlns:rdf="http://www.w3.org/1999/02/22-rdf-syntax-ns#"
   xmlns:svg="http://www.w3.org/2000/svg"
   xmlns="http://www.w3.org/2000/svg"
   viewBox="0 0 3517.3333 3517.3333"
   height="3517.3333"
   width="3517.3333"
   xml:space="preserve"
   id="svg2"
   version="1.1"><metadata
     id="metadata8"><rdf:RDF><cc:Work
         rdf:about=""><dc:format>image/svg+xml</dc:format><dc:type
           rdf:resource="http://purl.org/dc/dcmitype/StillImage" /></cc:Work></rdf:RDF></metadata><defs
     id="defs6" /><g
     transform="matrix(1.3333333,0,0,-1.3333333,0,3517.3333)"
     id="g10"><g
       transform="scale(0.1)"
       id="g12"><g
         transform="scale(1.61831)"
         id="g14"><path
           id="path16"
           style="fill:#ffffff;fill-opacity:1;fill-rule:evenodd;stroke:none"
           d="M 0.931719,16300 H 16300 V 0.931719 H 0.931719 V 16300" /></g><g
         transform="scale(1.26933)"
         id="g18"><path
           id="path20"
           style="fill:#000000;fill-opacity:1;fill-rule:evenodd;stroke:none"
           d="M 10572.7,13064.1 V 6573.2 c 1011.8,801.78 2329.1,1240.88 3760.9,1240.88 343.7,0 649.1,-19.1 973.6,-76.36 v 6643.68 c -305.4,57.2 -610.9,57.2 -973.6,57.2 -1470,-19.1 -2844.5,-515.5 -3760.9,-1374.5 z m 3760.9,-5650.91 c -1298.1,-0.06 -2500.9,-381.85 -3436.4,-1069.12 H 16300 v 6452.73 h -610.9 V 7489.54 c 0,-57.3 -19.1,-114.56 -76.4,-152.76 -38.2,-38.16 -95.4,-57.26 -152.7,-38.16 -362.8,76.36 -725.5,114.57 -1126.4,114.57 z M 9847.27,6344.07 c -897.3,687.27 -2138.18,1069.06 -3398.16,1069.06 -400.95,0 -763.63,-38.15 -1126.37,-114.51 -57.31,-19.1 -114.57,0 -152.72,38.16 -38.2,38.2 -76.36,95.46 -76.36,152.71 v 5307.21 l -610.96,0.1 V 6344.07 Z m 343.63,229.08 V 13064 c -897.3,859.1 -2233.69,1355.5 -3722.75,1355.5 -362.73,0 -668.16,0 -973.59,-57.3 V 7718.56 c 305.43,57.31 629.96,76.42 973.59,76.42 1412.76,0 2749.1,-439.1 3722.75,-1221.83" /></g></g></g></svg>