<?xml version="1.0" encoding="utf-8"?>
<!-- Generator: Adobe Illustrator 26.4.1, SVG Export Plug-In . SVG Version: 6.00 Build 0)  -->
<svg version="1.0" id="katman_1" xmlns="http://www.w3.org/2000/svg" xmlns:xlink="http://www.w3.org/1999/xlink" x="0px" y="0px"
	 viewBox="0 0 841.89 595.28" style="enable-background:new 0 0 841.89 595.28;" xml:space="preserve">
<style type="text/css">
	.st0{fill:#EE7778;}
	.st1{fill:#FFFFFF;}
</style>
<g>
	<circle class="st0" cx="420.59" cy="297.36" r="235.64"/>
	<path class="st1" d="M299.63,176.82c20.93,4.6,41.02,12.14,59.01,22.18c-21.35,10.88-39.34,27.21-52.32,47.3
		c-8.37-11.3-12.97-25.53-12.97-40.6C293.35,195.23,295.44,185.61,299.63,176.82z"/>
	<path class="st1" d="M547.83,394.46c0,12.97-10.46,23.44-23.44,23.44c-12.97,0-23.44-10.46-23.44-23.44v-18.83H339.81v18.83
		c0,12.97-10.46,23.44-23.44,23.44c-12.97,0-23.44-10.46-23.44-23.44v-71.57c0-69.06,53.57-127.66,122.63-130.17
		c72.41-2.51,131.84,55.25,131.84,127.24L547.83,394.46L547.83,394.46z"/>
	<path class="st1" d="M534.85,246.3c-12.97-20.09-30.97-36.41-52.32-47.3c18.42-10.05,38.09-17.58,59.01-22.18
		c4.19,8.79,6.28,18.42,6.28,28.88C547.83,220.77,542.8,234.58,534.85,246.3z"/>
	<path class="st0" d="M476.26,294.85c-1.67-0.84-3.35-0.42-4.19,0.84c-1.67,2.51-3.77,4.19-6.7,5.86c0-0.84,0-1.26,0-2.09
		c0-5.86-2.09-11.3-5.44-15.49c-2.51-3.77-6.7-5.86-11.72-5.86c-7.95,0-14.65,6.7-14.65,14.65c0,3.35,1.26,6.7,3.35,9.21
		c2.51,2.93,5.44,5.44,9.21,7.12c-2.51,1.26-5.02,2.09-7.95,2.09l0,0c-3.35,0-5.86,2.93-5.86,5.86c0,3.35,2.51,5.86,5.86,5.86
		c0.84,0,2.09,0,2.93,0c9.21,0,17.58-5.44,21.35-12.97c6.28-1.67,11.3-5.86,14.65-11.3C478.35,297.78,477.93,295.68,476.26,294.85z
		 M452.4,302.8c-3.77-1.26-7.12-3.35-9.21-6.7l0,0c-0.84-0.84-1.26-2.09-1.26-3.35c0-3.35,2.51-5.86,5.86-5.86
		c2.93,0,5.86,2.51,5.86,5.44c0,0.84,0.42,1.67,0.42,2.93C454.49,297.78,453.65,300.71,452.4,302.8z"/>
</g>
</svg>
